HIERARCHY
ROOT root
{
	OFFSET 0.000000 0.000000 0.000000
	CHANNELS 6 Xposition Yposition Zposition Zrotation Yrotation Xrotation
	JOINT lhip
	{
		OFFSET 0.058581 -0.082280 -0.017664
		CHANNELS 3 Zrotation Yrotation Xrotation
		JOINT lknee
		{
			OFFSET 0.043451 -0.386469 0.008037
			CHANNELS 3 Zrotation Yrotation Xrotation
			JOINT lankle
			{
				OFFSET -0.014790 -0.426874 -0.037428
				CHANNELS 3 Zrotation Yrotation Xrotation
				JOINT ltoe
				{
					OFFSET 0.041054 -0.060286 0.122042
					CHANNELS 3 Zrotation Yrotation Xrotation
					End Site
					{
						OFFSET 0.000000 0.000000 0.000000
					}
				}
			}
		}
	}
	JOINT rhip
	{
		OFFSET -0.060310 -0.090513 -0.013543
		CHANNELS 3 Zrotation Yrotation Xrotation
		JOINT rknee
		{
			OFFSET -0.043257 -0.383688 -0.004843
			CHANNELS 3 Zrotation Yrotation Xrotation
			JOINT rankle
			{
				OFFSET 0.019056 -0.420046 -0.034562
				CHANNELS 3 Zrotation Yrotation Xrotation
				JOINT rtoe
				{
					OFFSET -0.034840 -0.062106 0.130323
					CHANNELS 3 Zrotation Yrotation Xrotation
					End Site
					{
						OFFSET 0.000000 0.000000 0.000000
					}
				}
			}
		}
	}
	JOINT lowerback
	{
		OFFSET 0.004439 0.124404 -0.038385
		CHANNELS 3 Zrotation Yrotation Xrotation
		JOINT upperback
		{
			OFFSET 0.004488 0.137956 0.026820
			CHANNELS 3 Zrotation Yrotation Xrotation
			JOINT chest
			{
				OFFSET -0.002265 0.056032 0.002855
				CHANNELS 3 Zrotation Yrotation Xrotation
				JOINT lowerneck
				{
					OFFSET -0.013390 0.211636 -0.033468
					CHANNELS 3 Zrotation Yrotation Xrotation
					JOINT upperneck
					{
						OFFSET 0.010113 0.088937 0.050410
						CHANNELS 3 Zrotation Yrotation Xrotation
						End Site
						{
							OFFSET 0.000000 0.000000 0.000000
						}
					}
				}
				JOINT lclavicle
				{
					OFFSET 0.071702 0.114000 -0.018898
					CHANNELS 3 Zrotation Yrotation Xrotation
					JOINT lshoulder
					{
						OFFSET 0.122921 0.045205 -0.019046
						CHANNELS 3 Zrotation Yrotation Xrotation
						JOINT lelbow
						{
							OFFSET 0.255332 -0.015649 -0.022946
							CHANNELS 3 Zrotation Yrotation Xrotation
							JOINT lwrist
							{
								OFFSET 0.265709 0.012698 -0.007375
								CHANNELS 3 Zrotation Yrotation Xrotation
								End Site
								{
									OFFSET 0.000000 0.000000 0.000000
								}
							}
						}
					}
				}
				JOINT rclavicle
				{
					OFFSET -0.082954 0.112472 -0.023707
					CHANNELS 3 Zrotation Yrotation Xrotation
					JOINT rshoulder
					{
						OFFSET -0.113228 0.046853 -0.008472
						CHANNELS 3 Zrotation Yrotation Xrotation
						JOINT relbow
						{
							OFFSET -0.260127 -0.014369 -0.031269
							CHANNELS 3 Zrotation Yrotation Xrotation
							JOINT rwrist
							{
								OFFSET -0.269108 0.006794 -0.006027
								CHANNELS 3 Zrotation Yrotation Xrotation
								End Site
								{
									OFFSET 0.000000 0.000000 0.000000
								}
							}
						}
					}
				}
			}
		}
	}
}
MOTION
Frames: 14
Frame Time: 0.033333
0.553910 0.808063 0.781861 -69.256535 0.352478 91.551545 5.527145 -12.846302 -49.597232 -9.998119 3.397659 82.772056 8.238054 10.796010 -42.301704 0.000000 -0.000000 0.000000 -1.805559 1.010865 -43.423888 -4.372545 -11.359295 84.742940 4.041246 -15.108456 -43.073503 0.000000 -0.000000 0.000000 -1.034612 2.674132 31.850605 0.679793 0.560819 -9.999363 1.885811 2.042642 -0.129765 -2.150095 2.340151 8.839856 0.498930 12.252757 -18.093423 -22.296157 -1.387897 8.693062 -52.843282 -0.082926 3.804642 -5.543401 -62.068632 27.161172 6.825456 -4.369694 -12.636856 17.223030 10.014247 10.439716 58.136542 7.659914 7.396874 -18.500964 61.948428 3.850869 0.032575 5.705137 -7.518287 
0.541808 0.808559 0.820679 -64.848342 0.726355 90.115094 3.206747 -12.083910 -43.319420 -11.270006 -1.212690 76.305883 8.136961 9.193476 -37.717431 0.000000 -0.000000 0.000000 -0.522759 -2.043274 -36.937397 -4.108793 -11.763177 77.716009 3.569211 -14.949172 -37.854002 0.000000 -0.000000 0.000000 0.570424 4.270986 29.282896 -0.027714 2.318612 -10.105181 2.054776 2.946916 1.074983 -2.037658 5.829630 5.893992 -1.131580 15.323866 -16.418446 -18.571115 -2.486121 6.481453 -52.398440 1.669077 6.943009 -21.573512 -66.130223 47.517821 6.198713 -6.196033 -12.156022 12.224511 11.776578 7.563389 57.026223 7.215216 8.694561 -16.624228 68.606619 6.247596 4.539747 6.390895 -9.347941 
0.525965 0.806643 0.879583 -59.057543 0.993791 89.070945 2.272131 -11.108121 -35.655334 -12.878093 -5.922183 65.797175 6.198062 4.611261 -28.376246 0.000000 -0.000000 0.000000 -0.353416 -5.578455 -29.017083 -2.823060 -13.039017 66.739249 3.793718 -13.818146 -27.340330 0.000000 -0.000000 0.000000 1.734948 6.530851 24.783705 -0.146562 3.735742 -9.546952 2.201723 3.217859 2.499382 -2.062372 9.799877 2.144138 -1.925207 16.644939 -12.841023 -14.304203 -3.483427 4.039559 -54.054733 1.677400 10.802775 -30.041923 -66.493956 56.309688 8.323078 -8.577625 -13.172855 7.856796 10.985613 3.470612 55.817652 5.035690 10.777034 -14.330958 72.288470 7.320881 5.554645 8.292902 -10.689627 
0.510640 0.800894 0.960097 -51.359039 0.761937 88.591628 1.699939 -9.812933 -26.402854 -13.728062 -12.777946 49.881014 2.036211 -2.272955 -12.440403 0.000000 -0.000000 0.000000 -1.248485 -8.730460 -19.599616 -0.917340 -14.692772 50.570708 4.164210 -12.092546 -10.321507 0.000000 -0.000000 0.000000 1.255855 8.272712 18.028651 0.593254 3.791243 -6.729826 2.665827 2.842258 3.696500 -1.932312 12.204223 -0.079765 -1.619280 17.613869 -9.409367 -12.879173 -2.607637 2.335244 -56.189406 -0.623944 13.750784 -28.723897 -65.751555 55.119336 8.583984 -9.167012 -14.921451 7.108095 8.016808 1.079030 55.790075 4.298846 12.029630 -14.765464 70.184287 5.851134 9.956232 9.265138 -11.079894 
0.496747 0.791253 1.054064 -41.370091 0.342573 88.396591 2.032449 -7.526802 -16.624926 -10.020756 -18.234356 26.498042 -12.648865 -8.668431 17.089976 0.000000 -0.000000 0.000000 -0.753336 -9.525041 -9.661503 -2.441083 -16.538369 29.965011 6.184610 -10.871229 16.126368 0.000000 -0.000000 0.000000 -0.226204 8.261366 11.690501 1.322562 2.285737 -2.430475 3.392189 2.115839 2.181913 -2.976287 12.676257 0.837213 -0.293461 18.843769 -8.723468 -15.355165 -1.812931 2.298905 -57.808803 -2.615722 15.731126 -20.257260 -64.951036 44.877434 6.997558 -10.486131 -11.972343 9.692614 5.723065 1.540187 55.920141 3.176107 13.342156 -16.217241 65.334025 2.223744 7.123410 7.824716 -9.845324 
0.491934 0.777686 1.142368 -29.183719 -0.541463 88.867771 0.432465 -5.223544 -11.066578 -4.799106 -14.201673 9.299931 -15.493678 -2.964019 24.759463 0.000000 -0.000000 0.000000 0.290226 -7.534742 -1.831083 -2.646778 -13.137035 9.945687 8.289675 -11.597014 38.355824 0.000000 -0.000000 0.000000 -0.829847 6.150364 7.258968 0.827161 -0.336920 -1.580627 3.417576 1.281965 2.540549 -4.894897 11.213065 0.903048 1.541782 20.755726 -7.536027 -17.993268 -1.882003 3.383276 -59.252463 -4.384667 16.208290 -14.468111 -63.298972 37.864513 7.197868 -11.106497 -10.771173 11.864123 3.296279 3.145523 56.706844 2.717177 14.654115 -14.099126 61.326284 4.530861 1.209007 6.315411 -7.490216 
0.495226 0.771667 1.209836 -15.840773 -1.281737 91.491276 -0.301190 -6.183964 -12.857201 -3.716495 -3.693965 7.001511 -9.535264 1.185462 18.578378 0.000000 -0.000000 0.000000 -0.846489 -6.704713 -2.908132 1.484936 -11.295775 7.953295 11.802310 -9.811454 34.092853 0.000000 -0.000000 0.000000 -1.663425 3.839825 0.513318 1.272931 -3.093783 0.499000 2.222932 0.011473 2.898352 -3.685227 11.776548 0.757591 1.507740 20.312605 -5.393024 -20.141461 -1.315202 3.273697 -60.351450 -6.843848 18.154846 -12.591867 -61.391482 34.865776 4.059671 -11.504099 -10.140321 15.074720 0.099823 5.002825 55.132684 2.980870 16.012237 -12.361150 59.843882 7.195948 6.223670 6.886055 -8.081052 
0.498892 0.771196 1.266163 -4.358820 -0.043307 89.885786 0.392067 -2.922170 -11.913267 -3.118435 0.529376 10.515509 -6.561763 3.086761 17.501333 0.000000 -0.000000 0.000000 0.939290 -7.217071 -3.132414 2.231249 -9.748328 12.926849 12.625451 -6.622752 34.505771 0.000000 -0.000000 0.000000 0.307897 2.749491 3.176667 1.386341 -3.376055 -1.044469 1.577324 -1.052120 1.726545 -3.768708 11.861983 1.753908 2.221554 22.107465 -4.123092 -22.720911 -2.884331 2.534041 -60.111918 -7.526385 19.120372 -14.826774 -59.788025 36.186152 2.741017 -11.308613 -8.770705 16.311798 -1.524430 3.601704 55.104688 -1.298775 16.004163 -10.453200 59.111961 8.172835 7.675412 7.193989 -8.237614 
0.499282 0.771710 1.314498 4.440047 0.882449 87.387262 1.746499 -0.525498 -9.894493 -3.566722 -0.921810 14.952322 -6.575877 2.663854 16.080249 0.000000 -0.000000 0.000000 2.449041 -6.564386 -3.495567 0.830992 -9.502413 18.584144 11.983162 -6.235819 32.775700 0.000000 -0.000000 0.000000 0.041058 2.059107 7.241559 1.628918 -2.730862 -3.649934 2.296080 -1.410439 2.718171 -3.207690 11.903550 0.559028 3.370783 22.543876 -1.252792 -23.806120 -3.852656 1.876945 -61.310288 -8.446481 19.537005 -13.674003 -57.917354 34.591399 2.708015 -11.341890 -8.191327 16.827239 -1.799077 2.631510 55.930381 -3.227323 15.580260 -8.889941 56.256020 7.366370 9.092161 7.679336 -9.625003 
0.500933 0.773062 1.351598 13.411992 0.453124 86.902837 2.238334 -2.655098 -9.377959 -4.360638 -2.211042 17.646236 -7.651756 2.691613 15.800235 0.000000 -0.000000 0.000000 1.854350 -4.629476 -5.185951 0.091642 -7.943812 21.015480 11.098032 -6.966060 33.049964 0.000000 -0.000000 0.000000 -1.645576 1.601263 6.464347 1.914043 -3.479421 -1.421623 2.228293 -1.698771 3.586924 -3.158175 15.285508 -1.350869 2.974718 22.517258 0.898445 -23.570732 -4.228575 1.520848 -61.414436 -9.875700 20.014163 -10.786260 -56.662290 29.960342 4.809545 -11.218724 -9.114132 18.740787 -1.697892 2.830659 56.764478 -1.436013 16.712899 -12.508260 51.752384 3.009864 6.269875 6.453004 -8.323109 
0.503303 0.774715 1.377840 22.070473 -0.097304 86.882994 2.221720 -4.225071 -8.888635 -4.018041 -3.904317 18.365163 -8.846908 3.471531 17.185364 0.000000 -0.000000 0.000000 0.518821 -3.784394 -6.611334 0.004805 -6.299280 20.961701 10.755817 -6.750049 30.522764 0.000000 -0.000000 0.000000 -2.809901 1.047290 5.502995 1.821242 -4.280756 1.056864 1.817904 -1.786459 3.533736 -2.673382 15.356216 -4.368982 2.206403 18.894460 -0.038116 -23.174189 -3.644211 0.207907 -60.053501 -10.317244 20.521779 -8.510351 -55.885829 27.222475 4.665317 -11.426762 -9.732382 20.566747 -0.924622 2.545323 56.353154 0.074479 17.834327 -13.073683 48.009874 1.277770 5.175036 6.440094 -7.243093 
0.505379 0.775613 1.393969 29.717977 -0.099580 87.232195 2.834696 -4.188568 -8.395560 -3.348668 -5.670009 17.454600 -9.615535 3.883270 18.410235 0.000000 -0.000000 0.000000 -0.286214 -3.255197 -8.020931 -0.566894 -5.593184 20.121029 10.416597 -7.271346 28.425658 0.000000 -0.000000 0.000000 -3.138299 1.286745 5.224340 1.888775 -3.942168 1.218584 1.766666 -1.829617 2.399399 -1.690560 15.700558 -0.988709 3.095075 19.342587 0.922365 -23.728671 -3.918132 1.200445 -57.027958 -10.588259 19.500159 -7.505979 -55.503812 26.360754 4.110247 -11.477160 -8.069017 20.978159 -0.752406 2.762013 55.675650 -0.416028 17.429645 -12.392515 46.670353 1.660976 5.232139 6.330840 -7.009316 
0.509036 0.775355 1.398512 36.181392 0.266064 87.413218 3.707453 -2.602192 -7.674085 -2.706707 -5.885955 16.428449 -8.856989 4.416934 17.521152 0.000000 -0.000000 0.000000 -0.781637 -2.849603 -9.231858 -1.067526 -4.674644 19.836874 10.276204 -6.961446 27.936052 0.000000 -0.000000 0.000000 -2.516883 1.433675 5.544358 1.400985 -2.938420 -0.464902 1.650267 -1.297065 2.176014 -1.659338 14.597384 0.628344 4.305659 19.401834 1.012552 -23.064424 -4.058422 1.602936 -54.729541 -10.284574 17.645062 -7.253752 -54.688043 25.113474 4.422454 -11.308564 -7.019115 20.333902 -0.535060 3.525275 55.186422 -1.290778 16.122025 -11.148115 47.276705 2.269473 5.052879 6.393491 -7.438319 
0.512045 0.775698 1.392092 43.181685 0.468891 87.068862 4.319638 -1.249095 -7.098014 -2.456217 -5.035841 16.330528 -8.515426 5.690460 17.761841 0.000000 -0.000000 0.000000 -1.359264 -3.570244 -9.405182 -1.307947 -3.927719 19.557492 9.821434 -6.883986 26.547338 0.000000 -0.000000 0.000000 -2.432219 1.217988 6.201290 1.165492 -2.641243 -1.324798 1.609233 -0.907912 2.893901 -1.678875 12.327248 0.529866 6.089837 16.383021 2.319333 -21.974378 -3.825000 0.641999 -52.319324 -10.282681 16.227543 -5.219282 -54.326220 20.824558 5.459031 -10.827397 -6.804261 19.920333 0.157137 3.055604 53.382334 -1.842879 15.792415 -10.323900 48.798987 2.441947 5.751083 6.360544 -7.272592 
